<svg xmlns="http://www.w3.org/2000/svg" width="969.77" height="121.955" viewBox="0 0 969.77 121.955">
  <g id="Group_5676" data-name="Group 5676" transform="translate(-3.889 897.558)">
    <g id="Group_5674" data-name="Group 5674">
      <path id="Path_11432" data-name="Path 11432" d="M543.264-840.548c-16.678-21.671-3.187-55.511,27.268-55.876h61.957L626.9-881.3H576.815c-8.324.117-12.975,10.327-8.324,16.546,7.736,11.9,20.854,20.222,29.116,32.426,17.924,24.081-.154,55.457-26.853,55.531H502.633l5.6-15.136h53.774c8.254-.086,12.87-10.265,8.556-16.356-6.8-11.279-18.87-21.957-27.3-32.258Zm-62.9,63.75H446.522L490.613-896.4h33.852L480.367-776.8Zm166.547,0H613.046l44.1-119.606h33.838L646.914-776.8Zm51.144-83.363c11.781-24.9,36.623-38.117,59.6-37.367h20.991c17.7.834,28.421,15.448,29.365,27.542a35.825,35.825,0,0,1-.216,7.842c-.286,1.358-.589,2.707-.934,4.085A200.339,200.339,0,0,1,790.264-813c-11.788,24.909-36.623,38.146-59.62,37.367H709.652c-17.691-.8-28.43-15.435-29.347-27.529a33.548,33.548,0,0,1,.209-7.848c.277-1.339.6-2.711.924-4.069a200.478,200.478,0,0,1,16.62-45.079ZM762.1-885.128h0c-12.467.361-22.953,7.487-27.472,19.211l-22.353,60.892a10.992,10.992,0,0,0-.814,4.632v.015A12.429,12.429,0,0,0,722.9-788h3.3a29.673,29.673,0,0,0,27.488-19.221l22.346-60.907a11.115,11.115,0,0,0,.824-4.609v-.042A12.448,12.448,0,0,0,765.4-885.154l-3.295.026ZM401.968-814.187,457.007-896.4h19.881L400.036-781.849h0a11.348,11.348,0,0,1-9.087,5.051h-.715a2.892,2.892,0,0,0-.4-.019.19.19,0,0,1,.1.019H371.091l-9.4-119.606H395.52l6.448,82.217ZM843.684-857.75l-.135-1.477L813.019-776.8H795.581L839.869-896.4h22.072l31.863,80.82,29.937-80.82h17.453L896.9-776.8h-15.95a11.406,11.406,0,0,1-9.853-6.943l-27.41-74.009Z" fill="#fff" fill-rule="evenodd"/>
      <path id="Path_11433" data-name="Path 11433" d="M177.707-776.8H141.692l44.175-119.626h36L177.707-776.8ZM66.936-850.35H109.73L126.718-896.4h35.936L121.242-784.076v-.032a.631.631,0,0,1-.054.125,11.411,11.411,0,0,1-10.475,7.185H82.626l21.085-57.209H60.917L39.826-776.8H3.889L47.989-896.4H83.911L66.936-850.35Zm198.294-1.075L323.8-896.4h26.84l-59.874,45.977,37.956,73.59H298.227a2.37,2.37,0,0,1,.271-.055,11.372,11.372,0,0,1-10.974-6.389.5.5,0,0,0-.077-.112l-.012.06L263.6-829.564l-8.972,6.891-16.9,45.875H201.789L245.877-896.4H281.82l-16.59,44.979Z" fill="#fff" fill-rule="evenodd"/>
    </g>
    <g id="Group_5675" data-name="Group 5675">
      <path id="Path_11434" data-name="Path 11434" d="M954.525-876.567v-15.22h6.747a9.017,9.017,0,0,1,3.094.41,3.392,3.392,0,0,1,1.693,1.448,4.334,4.334,0,0,1,.632,2.3,3.83,3.83,0,0,1-1.047,2.731,5.312,5.312,0,0,1-3.24,1.411,5.245,5.245,0,0,1,1.215.758,10.465,10.465,0,0,1,1.671,2.024l2.648,4.143H965.4l-2.013-3.166q-.882-1.371-1.453-2.1a4.62,4.62,0,0,0-1.023-1.018,3.041,3.041,0,0,0-.919-.4,6,6,0,0,0-1.121-.073h-2.336v6.759Zm2.014-8.5h4.329a6.5,6.5,0,0,0,2.159-.286,2.31,2.31,0,0,0,1.184-.913,2.48,2.48,0,0,0,.4-1.366,2.267,2.267,0,0,0-.783-1.775,3.668,3.668,0,0,0-2.477-.7h-4.816Z" fill="#fff"/>
    </g>
    <path id="Path_11435" data-name="Path 11435" d="M960.8-896.851a12.861,12.861,0,0,0-12.864,12.857A12.864,12.864,0,0,0,960.8-871.132a12.86,12.86,0,0,0,12.859-12.862A12.856,12.856,0,0,0,960.8-896.851Zm0,24.254a11.4,11.4,0,0,1-11.4-11.4,11.4,11.4,0,0,1,11.4-11.394,11.4,11.4,0,0,1,11.4,11.394A11.4,11.4,0,0,1,960.8-872.6Z" fill="#fff"/>
  </g>
</svg>
